<?xml version="1.0" standalone="no"?>
<!DOCTYPE svg PUBLIC "-//W3C//DTD SVG 20010904//EN"
 "http://www.w3.org/TR/2001/REC-SVG-20010904/DTD/svg10.dtd">
<svg version="1.0" xmlns="http://www.w3.org/2000/svg"
 width="1334.000000pt" height="2000.000000pt" viewBox="0 0 1334.000000 2000.000000"
 preserveAspectRatio="xMidYMid meet">
<metadata>
Created by potrace 1.16, written by Peter Selinger 2001-2019
</metadata>
<g transform="translate(0.000000,2000.000000) scale(0.100000,-0.100000)"
fill="#000000" stroke="none">
<path d="M6393 18209 c38 -23 9 -44 -90 -65 -46 -9 -70 -20 -84 -38 -17 -22
-22 -23 -54 -13 -19 6 -35 15 -35 20 0 5 -7 6 -16 3 -9 -4 -45 5 -79 19 -74
29 -104 33 -85 10 8 -10 9 -15 2 -15 -6 0 -15 6 -19 13 -10 17 -53 29 -53 15
0 -5 -33 -9 -77 -8 -101 2 -159 -5 -233 -30 -32 -11 -69 -20 -81 -20 -22 0
-97 -37 -114 -56 -9 -10 -161 -111 -286 -190 -120 -75 -265 -178 -274 -194 -5
-10 -28 -32 -50 -48 -94 -68 -296 -308 -376 -449 -9 -15 -48 -80 -86 -143 -38
-63 -77 -135 -87 -160 -10 -25 -23 -56 -28 -70 -6 -14 -15 -34 -20 -44 -6 -11
-14 -31 -18 -45 -5 -14 -18 -51 -29 -81 -12 -30 -21 -69 -21 -86 0 -17 -7 -51
-15 -75 -22 -61 -90 -345 -109 -454 -9 -49 -21 -115 -27 -145 -7 -30 -15 -84
-19 -120 -13 -112 -32 -215 -41 -224 -5 -6 -9 -22 -9 -37 0 -22 4 -26 20 -22
25 7 27 -22 5 -93 -8 -27 -15 -59 -15 -72 0 -12 -6 -25 -14 -28 -11 -4 -13
-12 -6 -30 5 -13 9 -147 9 -297 -1 -155 4 -313 10 -367 7 -55 10 -148 6 -225
-20 -480 -14 -775 19 -915 8 -36 29 -123 46 -195 17 -71 38 -161 46 -200 8
-38 18 -77 23 -85 5 -9 7 -34 5 -55 -1 -22 -5 -71 -8 -108 -3 -38 -11 -99 -17
-135 -5 -37 -16 -128 -23 -202 l-13 -135 -67 -65 c-126 -121 -229 -170 -416
-200 -41 -6 -95 -17 -120 -23 -25 -6 -108 -11 -185 -11 -162 0 -271 21 -430
80 -101 37 -185 54 -185 37 0 -6 9 -18 20 -28 24 -21 26 -44 5 -46 -8 -1 -19
-3 -25 -4 -5 -1 -18 -3 -27 -4 -14 -1 -12 -5 9 -16 50 -28 253 -97 323 -111
39 -7 81 -20 95 -28 14 -8 82 -20 150 -26 69 -7 136 -16 148 -21 l24 -9 -23
-19 -24 -19 59 -1 c33 0 64 -5 69 -10 17 -17 -60 -82 -150 -129 -66 -34 -99
-44 -184 -57 -57 -8 -185 -37 -284 -64 -99 -27 -200 -52 -225 -56 -82 -11
-102 -39 -269 -370 -205 -409 -214 -434 -335 -940 -25 -104 -52 -215 -60 -245
-62 -233 -142 -661 -175 -930 -41 -339 -82 -1040 -96 -1640 -3 -135 -8 -369
-13 -520 -14 -538 -6 -883 28 -1230 34 -345 34 -347 6 -445 -14 -49 -35 -135
-47 -190 -11 -55 -44 -167 -72 -250 -49 -142 -52 -155 -50 -240 1 -49 -3 -129
-9 -177 -10 -81 -9 -91 11 -138 12 -28 24 -81 28 -118 7 -83 23 -112 63 -112
41 0 46 -30 20 -105 -32 -91 -33 -98 -16 -155 9 -31 16 -90 16 -142 0 -75 -4
-96 -25 -138 -14 -27 -25 -66 -25 -87 0 -31 6 -43 37 -69 32 -27 37 -37 41
-87 6 -77 -2 -101 -40 -118 -49 -21 -56 -71 -24 -164 24 -70 24 -74 10 -130
-23 -87 0 -159 101 -316 39 -61 84 -167 116 -277 7 -25 28 -58 51 -80 37 -36
38 -39 58 -172 19 -130 46 -289 90 -530 25 -136 128 -596 170 -760 16 -63 55
-226 87 -362 l58 -248 4483 0 4484 0 -6 188 c-3 103 -1 441 5 752 5 311 12
727 15 925 3 198 7 369 9 380 3 12 22 29 47 42 65 31 106 70 118 111 18 62 31
367 19 463 -7 57 -7 94 0 112 8 20 6 36 -10 71 -11 25 -24 71 -30 103 -6 33
-19 66 -30 76 -11 10 -19 32 -19 50 -1 18 -7 43 -15 57 -20 35 -18 78 5 107
26 33 26 34 -10 71 -36 38 -39 77 -10 141 l20 44 -20 22 c-24 26 -25 41 -5 89
19 45 13 56 -30 56 -24 0 -39 7 -49 22 -20 28 -21 82 -1 98 10 8 15 31 15 69
0 50 3 59 29 81 25 22 30 34 36 97 l6 71 -35 12 c-44 14 -51 35 -41 133 3 39
6 92 5 117 0 25 5 78 11 118 18 110 -9 208 -92 329 -17 24 -29 55 -29 74 0 32
19 158 45 304 14 74 40 309 82 740 21 218 25 1251 6 1435 -7 63 -20 201 -28
305 -16 198 -50 494 -95 830 -16 112 -40 310 -55 440 -38 344 -142 965 -215
1290 -11 50 -27 122 -35 160 -16 75 -79 324 -145 570 -22 83 -47 188 -57 234
-15 75 -22 92 -74 161 -33 44 -71 83 -87 89 -16 7 -38 24 -49 39 -34 46 -184
168 -253 205 -98 54 -159 75 -324 112 -165 38 -324 81 -372 101 -44 19 -57 39
-56 89 0 25 -4 48 -9 51 -12 7 -1 86 17 131 13 31 13 33 -16 55 -16 12 -30 28
-30 36 0 12 -9 13 -42 7 -24 -4 -93 -13 -154 -19 -61 -7 -116 -16 -121 -19
-15 -9 -183 17 -213 33 -30 16 -44 33 -66 80 -9 19 -21 40 -28 45 -18 16 -46
84 -46 112 0 14 -20 66 -45 115 -25 48 -47 105 -49 125 -6 61 -18 116 -31 143
-28 55 -38 302 -40 970 -1 422 -6 685 -13 720 -6 30 -13 98 -16 150 -8 121
-26 241 -39 258 -6 7 -19 11 -29 9 -22 -6 -24 23 -4 68 7 17 10 39 6 50 -4 11
-10 40 -14 65 -4 25 -17 59 -30 75 -20 25 -31 30 -67 30 l-42 0 -24 69 c-13
41 -19 74 -14 79 20 20 86 -12 134 -65 l48 -53 -7 50 c-17 130 -56 239 -113
309 -18 22 -31 50 -31 66 0 15 -7 47 -15 71 -9 24 -15 53 -14 64 1 11 -2 31
-8 45 -21 50 -33 97 -33 128 0 17 -11 52 -25 78 -16 31 -22 51 -16 62 7 13 10
12 21 -7 6 -13 14 -21 16 -18 3 2 -27 78 -67 168 -39 90 -81 187 -93 215 -12
28 -49 100 -83 160 -125 224 -150 276 -123 259 6 -3 10 -2 10 3 0 6 -11 12
-23 16 -17 4 -27 17 -36 48 -16 51 -45 97 -143 226 -69 90 -267 280 -373 358
-103 77 -123 93 -151 126 -28 32 -99 84 -123 90 -14 3 -54 14 -89 22 -34 9
-74 23 -88 33 -17 11 -43 16 -73 14 -33 -1 -52 3 -61 13 -8 10 -21 14 -36 10
-15 -4 -24 -2 -24 5 0 6 7 11 16 11 14 0 14 3 4 15 -7 8 -18 15 -25 15 -7 0
-15 7 -19 15 -7 19 -55 19 -76 0 -17 -15 -37 -19 -82 -17 -18 1 -33 12 -45 32
-9 17 -24 30 -33 30 -12 -1 -12 -3 3 -11z m-29 -1104 c-4 -16 -2 -25 6 -25 7
0 10 -7 6 -15 -3 -10 1 -15 14 -15 11 0 22 -10 26 -22 10 -32 21 -37 84 -39
30 -1 45 -4 33 -6 -13 -2 -23 -8 -23 -13 0 -9 49 -24 69 -21 7 1 10 -2 7 -8
-4 -6 13 -13 39 -17 25 -3 52 -12 58 -19 7 -7 23 -15 35 -19 12 -4 34 -20 49
-36 19 -20 34 -28 46 -24 13 4 20 0 23 -14 3 -10 22 -26 42 -35 20 -9 55 -32
76 -52 22 -19 45 -35 51 -35 6 0 18 -11 25 -25 8 -14 24 -28 37 -31 12 -3 32
-21 44 -40 11 -19 25 -32 29 -29 5 3 21 -11 36 -31 15 -19 49 -46 74 -59 62
-31 151 -114 173 -159 49 -104 66 -153 48 -142 -15 10 -13 -3 7 -44 15 -32 56
-80 149 -177 53 -55 79 -115 169 -398 20 -60 46 -137 59 -170 61 -159 108
-406 93 -490 -4 -22 -16 -123 -28 -225 -37 -334 -41 -363 -65 -515 -30 -185
-68 -305 -146 -460 -79 -157 -91 -171 -146 -174 -7 -1 -12 -4 -11 -8 6 -22
-16 -51 -48 -65 -34 -15 -37 -15 -52 3 -22 25 -32 24 -32 -4 0 -12 -9 -28 -21
-35 -18 -12 -21 -11 -26 8 -5 19 -10 21 -47 14 -22 -3 -44 -11 -48 -17 -4 -6
-10 -8 -14 -4 -4 3 -2 13 5 20 15 19 -3 32 -49 35 -31 2 -33 1 -18 -11 13 -10
16 -25 13 -65 -2 -29 -7 -57 -10 -63 -4 -6 -7 -26 -7 -45 0 -19 -4 -37 -9 -40
-5 -3 -9 -15 -9 -27 0 -12 -15 -38 -33 -57 -18 -19 -36 -43 -40 -53 -4 -11
-16 -21 -27 -24 -11 -3 -20 -13 -20 -22 0 -9 -9 -22 -20 -29 -11 -7 -20 -19
-20 -27 0 -12 -4 -13 -19 -5 -27 14 -41 13 -41 -4 0 -8 -10 -18 -22 -22 -12
-4 -35 -20 -51 -35 -16 -16 -33 -29 -39 -29 -7 0 -19 -6 -27 -14 -27 -23 -111
-47 -165 -46 -81 1 -87 2 -98 20 -7 10 -19 15 -32 13 -13 -3 -42 9 -75 31 -62
42 -65 43 -58 16 3 -11 1 -18 -3 -15 -5 3 -11 1 -14 -4 -7 -11 -46 -2 -46 11
0 13 -21 33 -45 42 -13 5 -16 9 -8 14 14 9 -10 88 -25 85 -6 -1 -8 6 -5 17 3
11 10 17 15 14 5 -3 12 3 15 15 3 12 9 21 14 21 5 0 9 6 9 13 0 6 26 20 57 31
32 10 62 24 68 31 5 6 32 20 59 30 29 11 66 35 91 61 23 24 47 44 53 44 6 0
14 9 17 20 4 11 11 18 16 15 5 -4 9 -2 9 4 0 6 -9 15 -20 21 -11 6 -19 16 -17
23 1 8 -15 13 -45 15 -36 2 -46 6 -41 18 3 7 11 14 19 14 8 0 19 9 26 20 7 11
16 20 20 20 22 0 153 98 190 141 64 76 134 102 163 62 9 -13 29 -17 79 -18 36
0 66 2 66 7 0 4 12 19 26 33 27 27 31 83 5 77 -8 -2 -11 3 -8 13 4 10 0 16
-11 16 -24 3 -45 6 -57 9 -5 1 -14 1 -20 0 -5 -1 -41 -4 -78 -6 -61 -4 -76 -1
-130 25 -36 17 -94 35 -137 41 -110 17 -118 18 -140 25 -24 8 -158 -12 -212
-31 -35 -12 -44 -11 -86 5 -77 30 -63 61 29 61 33 0 63 21 79 55 3 6 8 9 13 7
4 -1 7 13 7 31 0 45 18 60 121 97 108 39 166 91 150 133 -9 23 -14 25 -33 18
-13 -4 -45 -12 -73 -16 -60 -8 -95 -29 -155 -89 -24 -25 -47 -46 -51 -46 -4 0
-21 14 -37 30 -17 17 -38 30 -47 30 -9 0 -29 9 -43 19 -15 10 -31 20 -37 21
-27 7 -35 15 -55 53 -42 83 -51 97 -63 97 -7 0 -6 4 3 10 13 8 12 10 -3 10
-10 0 -15 5 -12 10 3 6 2 10 -3 10 -12 0 -25 81 -15 89 4 3 14 17 21 30 13 22
12 26 -17 48 -17 14 -31 29 -31 35 0 7 5 6 14 -1 12 -10 18 -7 31 13 10 15 13
30 9 38 -5 7 -9 58 -10 114 -2 55 -7 127 -13 160 -6 32 -8 75 -5 94 11 74 12
112 4 139 -5 18 -4 33 3 40 7 7 7 15 -2 25 -7 8 -12 23 -11 33 1 10 1 23 0 28
-1 6 -1 36 0 68 1 39 -2 57 -11 57 -8 0 -5 7 6 20 10 11 13 20 7 20 -6 0 -9 6
-6 14 3 8 1 17 -5 21 -6 3 -11 13 -11 22 0 18 -63 83 -80 83 -5 0 -10 5 -10
11 0 5 -4 8 -9 5 -5 -3 -14 1 -21 9 -7 8 -20 15 -30 15 -10 0 -23 7 -30 15 -7
8 -21 15 -32 15 -10 0 -17 4 -14 9 5 8 -23 22 -50 25 -6 1 -19 8 -28 15 -16
13 -17 12 -11 -11 8 -32 -10 -47 -19 -15 -4 13 -9 18 -13 12 -5 -6 -19 -11
-33 -12 -14 -1 -19 1 -12 4 23 9 12 18 -20 18 -21 0 -32 5 -31 13 2 6 -2 12
-7 12 -6 0 -10 -7 -10 -15 0 -8 -6 -15 -13 -15 -8 0 -13 9 -12 23 2 12 -8 33
-20 47 -30 34 -37 57 -19 64 12 5 14 1 10 -17 l-6 -22 12 23 c9 18 8 25 -4 35
-32 25 -47 59 -38 83 6 15 5 24 -3 28 -9 3 -8 7 2 14 11 8 12 14 4 24 -21 27
-22 56 -1 61 11 3 18 10 15 15 -8 12 -9 76 -3 154 3 37 1 70 -4 73 -6 3 -5 16
1 32 5 15 7 33 5 40 -3 8 -1 11 4 8 6 -3 10 5 10 19 0 14 5 28 10 31 6 4 8 11
5 16 -4 5 4 13 17 18 13 6 19 10 14 10 -14 1 45 61 60 61 7 0 21 15 32 34 12
20 31 36 48 40 16 4 45 22 64 39 32 30 30 24 -10 -29 -8 -11 15 11 53 49 37
38 67 74 67 78 0 5 6 9 14 9 8 0 17 7 20 16 4 9 9 14 13 11 3 -4 11 -3 17 2
19 14 46 21 46 11 0 -6 -9 -10 -21 -10 -11 0 -18 -4 -15 -9 10 -15 47 0 56 23
4 12 15 28 24 35 9 7 16 17 16 21 0 4 17 26 38 49 33 36 42 41 78 39 31 -1 53
6 87 29 25 17 53 34 64 37 10 3 29 19 43 36 30 37 42 38 34 5z m-805 -1768
c25 -11 52 -28 61 -36 9 -9 25 -20 34 -26 11 -6 15 -16 11 -27 -6 -14 -10 -15
-28 -5 -12 7 -24 15 -27 18 -3 4 -41 9 -85 12 -82 7 -153 15 -192 23 -24 5
-32 37 -13 49 43 27 175 23 239 -8z m2718 -79 c11 -13 23 -31 26 -40 4 -11 12
-15 22 -12 11 5 15 -1 15 -21 0 -15 4 -24 10 -20 6 3 10 2 10 -4 0 -7 11 -6
31 1 49 17 53 -2 15 -62 -19 -30 -53 -86 -77 -125 -98 -165 -170 -271 -195
-287 -11 -8 -17 -27 -60 -187 -32 -120 -68 -176 -98 -152 -15 13 -18 12 -23
-7 -7 -27 -19 -28 -33 -3 -15 28 2 141 24 153 9 5 16 19 16 31 0 12 6 51 14
87 37 170 49 252 42 305 -8 70 6 98 42 84 14 -5 25 -8 26 -7 1 2 12 18 25 37
23 33 23 34 6 87 -20 65 -14 78 66 129 64 41 70 42 96 13z m-2529 -308 c-1
-21 4 -45 10 -52 13 -16 13 -109 -1 -125 -5 -7 -6 -13 -1 -13 5 0 2 -6 -7 -13
-9 -7 -18 -26 -21 -42 -28 -159 -42 -223 -53 -245 -7 -14 -16 -54 -20 -90 -9
-90 -10 -94 -19 -108 -4 -6 -4 -17 -1 -22 4 -6 1 -17 -5 -25 -7 -8 -10 -22 -6
-30 3 -9 2 -13 -4 -10 -6 3 -10 0 -10 -8 0 -8 -17 -32 -37 -54 -36 -38 -41
-39 -88 -36 -27 2 -54 7 -60 12 -5 4 -25 8 -43 9 -21 2 -45 13 -65 32 -18 17
-37 30 -43 30 -12 0 -67 59 -70 75 -2 5 -4 19 -6 30 -2 11 -7 25 -11 32 -4 6
-2 24 4 40 6 15 12 36 14 46 4 15 2 17 -10 7 -8 -7 -15 -18 -15 -26 0 -7 -5
-16 -11 -20 -8 -4 -9 1 -4 17 4 12 9 48 10 80 1 31 12 90 23 130 11 41 27 98
34 127 14 56 30 69 37 30 4 -23 4 -23 11 2 5 19 13 25 35 25 16 1 30 6 33 13
2 7 19 12 38 12 19 0 34 4 34 8 0 4 15 12 33 18 17 5 31 15 30 21 -2 7 3 10
11 7 7 -3 31 7 52 21 21 14 44 23 51 21 7 -3 12 0 10 6 -1 7 8 17 21 23 13 5
25 20 29 33 5 22 33 32 33 11 0 -8 5 -8 15 1 8 7 12 17 8 24 -4 6 1 5 10 -3
15 -12 17 -11 17 3 0 9 2 16 5 16 3 0 4 -18 3 -40z m1768 -1682 c-4 -13 -9
-34 -12 -47 -3 -14 -7 -28 -10 -33 -3 -4 0 -8 6 -8 8 0 9 -16 4 -52 -4 -29 -8
-66 -9 -83 -7 -89 -19 -166 -35 -210 -10 -27 -21 -63 -25 -80 -3 -16 -17 -47
-30 -67 -13 -20 -27 -48 -31 -62 -3 -14 -12 -30 -19 -36 -8 -6 -11 -18 -8 -26
3 -8 -2 -23 -11 -33 -10 -11 -34 -52 -55 -92 -31 -61 -42 -74 -69 -81 -22 -6
-32 -14 -32 -28 0 -11 -3 -19 -7 -18 -12 2 -60 -20 -67 -31 -4 -6 6 -9 24 -9
37 1 50 -9 24 -18 -32 -12 -53 -35 -47 -51 8 -20 -23 -44 -45 -36 -9 4 -13 2
-9 -4 3 -5 0 -10 -8 -10 -8 0 -12 3 -10 7 3 4 -4 15 -15 25 -11 10 -17 22 -14
27 6 10 -30 6 -59 -7 -10 -4 -23 -2 -32 5 -14 12 -14 15 0 30 17 19 20 40 5
40 -5 0 -10 5 -10 11 0 5 5 7 10 4 6 -3 10 -2 10 3 0 8 50 24 85 26 6 1 10 6
10 13 0 7 8 18 19 26 17 12 17 15 2 29 -8 9 -21 18 -27 20 -6 2 -11 20 -12 40
-1 42 25 78 57 78 29 0 50 15 41 30 -5 8 -21 10 -49 6 -37 -5 -39 -4 -23 8 10
8 18 23 17 33 -4 35 0 43 21 43 11 0 17 5 14 10 -4 6 -10 8 -15 5 -21 -13 -18
16 3 35 16 14 23 29 20 44 -4 17 3 27 24 41 33 22 53 47 46 57 -2 5 6 12 19
17 13 6 19 10 14 10 -23 2 177 221 202 221 8 0 12 8 10 18 -2 9 -9 16 -15 15
-19 -4 -9 21 24 57 17 19 32 39 31 43 0 12 53 67 65 67 5 0 6 -10 3 -22z
m-4206 -7593 c6 -8 16 -45 21 -82 5 -37 20 -131 34 -208 15 -77 31 -169 36
-205 13 -87 38 -223 52 -285 9 -42 13 -308 8 -460 -1 -22 6 -57 15 -77 18 -41
21 -11 -31 -398 -28 -205 -105 -540 -133 -572 -10 -12 -29 -18 -56 -18 -75 0
-109 48 -67 94 23 25 51 106 51 146 0 28 -3 30 -38 30 -40 0 -62 14 -62 39 0
26 50 120 70 131 29 15 25 29 -20 67 -34 29 -40 41 -40 73 0 42 18 67 55 76
13 3 25 13 27 22 5 24 -28 207 -43 244 -12 28 -11 32 10 49 12 10 45 21 71 25
29 4 56 14 66 25 16 18 16 22 -5 67 l-23 48 26 104 c36 152 39 196 26 338 -10
96 -19 139 -36 174 -13 26 -40 89 -59 141 l-35 95 6 128 c7 156 18 204 43 204
10 0 24 -7 31 -15z"/>
<path d="M6808 15791 c-1 -6 -30 -13 -63 -16 -33 -3 -68 -8 -77 -11 -33 -10
-63 -16 -80 -16 -10 1 -18 -4 -18 -10 0 -17 -33 -37 -62 -38 -15 0 -30 -4 -33
-10 -3 -5 -15 -10 -26 -10 -10 0 -28 -9 -39 -20 -11 -11 -28 -20 -37 -20 -24
-1 -46 -20 -60 -52 -9 -19 -9 -28 -2 -28 6 0 9 -6 6 -13 -3 -8 6 -22 19 -32
13 -10 24 -23 24 -30 0 -7 9 -15 19 -18 18 -4 33 -44 55 -138 3 -15 14 -29 24
-31 10 -3 24 -23 32 -47 7 -22 16 -41 20 -41 9 0 70 -55 70 -63 0 -4 -9 -7
-20 -7 -29 0 -25 -15 18 -57 46 -46 111 -79 177 -91 52 -9 159 -6 185 5 8 3
22 7 30 8 28 4 95 25 110 34 19 13 11 20 -29 23 -18 1 -37 8 -43 16 -9 11 -13
11 -20 0 -6 -9 -10 -10 -15 -2 -5 6 -18 16 -30 23 -13 6 -23 16 -23 21 0 18
41 52 55 46 9 -3 12 0 9 8 -4 9 -24 12 -74 9 -41 -2 -70 0 -70 6 0 5 8 9 18 9
36 -2 138 25 152 41 9 9 26 33 39 54 16 26 30 37 47 37 20 0 24 -5 24 -30 0
-22 -7 -34 -27 -45 l-28 -16 30 6 c17 4 57 17 90 30 41 17 78 23 117 22 32 0
60 2 64 6 18 17 -13 38 -88 61 -186 56 -245 68 -353 73 -60 2 -117 7 -125 10
-8 4 -18 7 -22 7 -4 1 -13 7 -20 14 -20 20 11 42 88 63 126 35 246 21 374 -43
47 -23 90 -44 95 -47 26 -12 -35 44 -71 65 -81 48 -136 57 -289 50 -77 -3
-153 -9 -169 -12 -28 -7 -28 -7 -10 15 10 11 23 21 30 21 6 0 10 8 10 19 -1
20 129 115 145 105 5 -3 9 0 9 5 0 6 -6 11 -12 11 -7 0 7 12 31 27 39 23 42
27 25 33 -10 4 -21 3 -22 -1 -2 -5 -9 -6 -15 -2 -6 4 -32 8 -57 9 -25 2 -59 6
-77 9 -17 3 -33 1 -35 -4z"/>
<path d="M6706 14541 c-8 -12 25 -171 35 -171 5 0 9 5 9 10 0 6 5 10 11 10 19
0 54 -33 117 -110 34 -41 74 -87 88 -101 23 -23 24 -27 9 -33 -15 -5 -12 -13
21 -50 22 -24 44 -45 50 -45 5 -1 34 -24 62 -52 29 -28 56 -49 59 -45 4 3 -1
12 -11 19 -11 8 -19 29 -21 57 -2 35 -11 51 -45 86 -32 32 -40 47 -35 63 7 22
-10 30 -18 9 -4 -10 -6 -10 -6 0 -1 6 -7 12 -15 12 -17 0 -26 22 -26 65 0 35
-5 42 -60 88 -17 15 -33 33 -34 40 -1 7 -12 24 -24 37 -12 13 -22 27 -22 30 0
4 -11 12 -25 18 -14 6 -25 17 -25 23 0 30 -79 64 -94 40z"/>
</g>
</svg>
